<?xml version="1.0" encoding="utf-8"?>
<!-- Generator: Adobe Illustrator 17.1.0, SVG Export Plug-In . SVG Version: 6.00 Build 0)  -->
<!DOCTYPE svg PUBLIC "-//W3C//DTD SVG 1.1//EN" "http://www.w3.org/Graphics/SVG/1.1/DTD/svg11.dtd">
<svg version="1.1" id="Layer_1" xmlns="http://www.w3.org/2000/svg" xmlns:xlink="http://www.w3.org/1999/xlink" x="0px" y="0px"
	 viewBox="0 0 1024 1024" style="enable-background:new 0 0 1024 1024;" xml:space="preserve">
<g>
	<path style="fill:#2B7F61;" d="M821.4,250.8c-48.1,0-87,39-87,87c0,17.2,5,33.2,13.6,46.6L583.6,593c19.5,9.7,36.7,23.3,50.6,39.9
		l166-210.7c6.8,1.7,13.9,2.6,21.3,2.6c48.1,0,87-39,87-87C908.4,289.7,869.5,250.8,821.4,250.8z"/>
	<g>
		<path style="fill:#2B7F61;" d="M512.9,647.8c-8.5,0-16.7,1.2-24.5,3.5L324.3,441.4c-14.1,16.3-31.5,29.7-51.1,39.2L437.8,691
			c-7.5,12.9-11.9,27.9-11.9,43.8c0,48.1,39,87,87,87s87-39,87-87C600,686.7,561,647.8,512.9,647.8z"/>
	</g>
	<path style="fill:#2B7F61;" d="M668.7,295.5c5.9-21.4,16.2-41,29.8-57.7c-58.7-21.7-121.2-32.9-185.6-32.9
		c-91.4,0-178.7,22.4-257,65.5c-14.4-10.6-32.2-16.9-51.5-16.9c-48.1,0-87,39-87,87c0,48.1,39,87,87,87s87-39,87-87
		c0-5.2-0.5-10.4-1.4-15.4c68-36.7,143.7-55.9,222.8-55.9C566.9,269.3,619.3,278.2,668.7,295.5z"/>
</g>
</svg>
